<svg width="1000" height="1000" viewBox="0 0 1000 1000" fill="none" xmlns="http://www.w3.org/2000/svg">
<g clip-path="url(#clip0_52_5500)">
<rect width="1000" height="1000" fill="white"/>
<path d="M102 100V200" stroke="black" stroke-width="3.77953"/>
<path d="M112 100V200" stroke="black" stroke-width="3.77953"/>
<path d="M122 100V200" stroke="black" stroke-width="3.77953"/>
<path d="M132 100V200" stroke="black" stroke-width="3.77953"/>
<path d="M142 100V200" stroke="black" stroke-width="3.77953"/>
<path d="M152 100V200" stroke="black" stroke-width="3.77953"/>
<path d="M162 100V200" stroke="black" stroke-width="3.77953"/>
<path d="M172 100V200" stroke="black" stroke-width="3.77953"/>
<path d="M182 100V200" stroke="black" stroke-width="3.77953"/>
<path d="M192 100V200" stroke="black" stroke-width="3.77953"/>
<path d="M400 800V900" stroke="black" stroke-width="3.77953"/>
<path d="M410 800V900" stroke="black" stroke-width="3.77953"/>
<path d="M420 800V900" stroke="black" stroke-width="3.77953"/>
<path d="M430 800V900" stroke="black" stroke-width="3.77953"/>
<path d="M440 800V900" stroke="black" stroke-width="3.77953"/>
<path d="M450 800V900" stroke="black" stroke-width="3.77953"/>
<path d="M460 800V900" stroke="black" stroke-width="3.77953"/>
<path d="M470 800V900" stroke="black" stroke-width="3.77953"/>
<path d="M480 800V900" stroke="black" stroke-width="3.77953"/>
<path d="M490 800V900" stroke="black" stroke-width="3.77953"/>
<path d="M102 300V400" stroke="black" stroke-width="3.77953"/>
<path d="M112 300V400" stroke="black" stroke-width="3.77953"/>
<path d="M122 300V400" stroke="black" stroke-width="3.77953"/>
<path d="M132 300V400" stroke="black" stroke-width="3.77953"/>
<path d="M142 300V400" stroke="black" stroke-width="3.77953"/>
<path d="M152 300V400" stroke="black" stroke-width="3.77953"/>
<path d="M162 300V400" stroke="black" stroke-width="3.77953"/>
<path d="M172 300V400" stroke="black" stroke-width="3.77953"/>
<path d="M182 300V400" stroke="black" stroke-width="3.77953"/>
<path d="M192 300V400" stroke="black" stroke-width="3.77953"/>
<path d="M200 200V300" stroke="black" stroke-width="3.77953"/>
<path d="M210 200V300" stroke="black" stroke-width="3.77953"/>
<path d="M220 200V300" stroke="black" stroke-width="3.77953"/>
<path d="M230 200V300" stroke="black" stroke-width="3.77953"/>
<path d="M240 200V300" stroke="black" stroke-width="3.77953"/>
<path d="M250 200V300" stroke="black" stroke-width="3.77953"/>
<path d="M260 200V300" stroke="black" stroke-width="3.77953"/>
<path d="M270 200V300" stroke="black" stroke-width="3.77953"/>
<path d="M280 200V300" stroke="black" stroke-width="3.77953"/>
<path d="M290 200V300" stroke="black" stroke-width="3.77953"/>
<path d="M300 300V400" stroke="black" stroke-width="3.77953"/>
<path d="M310 300V400" stroke="black" stroke-width="3.77953"/>
<path d="M320 300V400" stroke="black" stroke-width="3.77953"/>
<path d="M330 300V400" stroke="black" stroke-width="3.77953"/>
<path d="M340 300V400" stroke="black" stroke-width="3.77953"/>
<path d="M350 300V400" stroke="black" stroke-width="3.77953"/>
<path d="M360 300V400" stroke="black" stroke-width="3.77953"/>
<path d="M370 300V400" stroke="black" stroke-width="3.77953"/>
<path d="M380 300V400" stroke="black" stroke-width="3.77953"/>
<path d="M390 300V400" stroke="black" stroke-width="3.77953"/>
<path d="M700 500V600" stroke="black" stroke-width="3.77953"/>
<path d="M710 500V600" stroke="black" stroke-width="3.77953"/>
<path d="M720 500V600" stroke="black" stroke-width="3.77953"/>
<path d="M730 500V600" stroke="black" stroke-width="3.77953"/>
<path d="M740 500V600" stroke="black" stroke-width="3.77953"/>
<path d="M750 500V600" stroke="black" stroke-width="3.77953"/>
<path d="M760 500V600" stroke="black" stroke-width="3.77953"/>
<path d="M770 500V600" stroke="black" stroke-width="3.77953"/>
<path d="M780 500V600" stroke="black" stroke-width="3.77953"/>
<path d="M790 500V600" stroke="black" stroke-width="3.77953"/>
<path d="M800 200V300" stroke="black" stroke-width="3.77953"/>
<path d="M810 200V300" stroke="black" stroke-width="3.77953"/>
<path d="M820 200V300" stroke="black" stroke-width="3.77953"/>
<path d="M830 200V300" stroke="black" stroke-width="3.77953"/>
<path d="M840 200V300" stroke="black" stroke-width="3.77953"/>
<path d="M850 200V300" stroke="black" stroke-width="3.77953"/>
<path d="M860 200V300" stroke="black" stroke-width="3.77953"/>
<path d="M870 200V300" stroke="black" stroke-width="3.77953"/>
<path d="M880 200V300" stroke="black" stroke-width="3.77953"/>
<path d="M890 200V300" stroke="black" stroke-width="3.77953"/>
<path d="M800 600V700" stroke="black" stroke-width="3.77953"/>
<path d="M810 600V700" stroke="black" stroke-width="3.77953"/>
<path d="M820 600V700" stroke="black" stroke-width="3.77953"/>
<path d="M830 600V700" stroke="black" stroke-width="3.77953"/>
<path d="M840 600V700" stroke="black" stroke-width="3.77953"/>
<path d="M850 600V700" stroke="black" stroke-width="3.77953"/>
<path d="M860 600V700" stroke="black" stroke-width="3.77953"/>
<path d="M870 600V700" stroke="black" stroke-width="3.77953"/>
<path d="M880 600V700" stroke="black" stroke-width="3.77953"/>
<path d="M890 600V700" stroke="black" stroke-width="3.77953"/>
<path d="M200 400V500" stroke="black" stroke-width="3.77953"/>
<path d="M210 400V500" stroke="black" stroke-width="3.77953"/>
<path d="M220 400V500" stroke="black" stroke-width="3.77953"/>
<path d="M230 400V500" stroke="black" stroke-width="3.77953"/>
<path d="M240 400V500" stroke="black" stroke-width="3.77953"/>
<path d="M250 400V500" stroke="black" stroke-width="3.77953"/>
<path d="M260 400V500" stroke="black" stroke-width="3.77953"/>
<path d="M270 400V500" stroke="black" stroke-width="3.77953"/>
<path d="M280 400V500" stroke="black" stroke-width="3.77953"/>
<path d="M290 400V500" stroke="black" stroke-width="3.77953"/>
<path d="M600 600V700" stroke="black" stroke-width="3.77953"/>
<path d="M610 600V700" stroke="black" stroke-width="3.77953"/>
<path d="M620 600V700" stroke="black" stroke-width="3.77953"/>
<path d="M630 600V700" stroke="black" stroke-width="3.77953"/>
<path d="M640 600V700" stroke="black" stroke-width="3.77953"/>
<path d="M650 600V700" stroke="black" stroke-width="3.77953"/>
<path d="M660 600V700" stroke="black" stroke-width="3.77953"/>
<path d="M670 600V700" stroke="black" stroke-width="3.77953"/>
<path d="M680 600V700" stroke="black" stroke-width="3.77953"/>
<path d="M690 600V700" stroke="black" stroke-width="3.77953"/>
<path d="M600 800V900" stroke="black" stroke-width="3.77953"/>
<path d="M610 800V900" stroke="black" stroke-width="3.77953"/>
<path d="M620 800V900" stroke="black" stroke-width="3.77953"/>
<path d="M630 800V900" stroke="black" stroke-width="3.77953"/>
<path d="M640 800V900" stroke="black" stroke-width="3.77953"/>
<path d="M650 800V900" stroke="black" stroke-width="3.77953"/>
<path d="M660 800V900" stroke="black" stroke-width="3.77953"/>
<path d="M670 800V900" stroke="black" stroke-width="3.77953"/>
<path d="M680 800V900" stroke="black" stroke-width="3.77953"/>
<path d="M690 800V900" stroke="black" stroke-width="3.77953"/>
<path d="M102 500V600" stroke="black" stroke-width="3.77953"/>
<path d="M112 500V600" stroke="black" stroke-width="3.77953"/>
<path d="M122 500V600" stroke="black" stroke-width="3.77953"/>
<path d="M132 500V600" stroke="black" stroke-width="3.77953"/>
<path d="M142 500V600" stroke="black" stroke-width="3.77953"/>
<path d="M152 500V600" stroke="black" stroke-width="3.77953"/>
<path d="M162 500V600" stroke="black" stroke-width="3.77953"/>
<path d="M172 500V600" stroke="black" stroke-width="3.77953"/>
<path d="M182 500V600" stroke="black" stroke-width="3.77953"/>
<path d="M192 500V600" stroke="black" stroke-width="3.77953"/>
<path d="M400 200V300" stroke="black" stroke-width="3.77953"/>
<path d="M410 200V300" stroke="black" stroke-width="3.77953"/>
<path d="M420 200V300" stroke="black" stroke-width="3.77953"/>
<path d="M430 200V300" stroke="black" stroke-width="3.77953"/>
<path d="M440 200V300" stroke="black" stroke-width="3.77953"/>
<path d="M450 200V300" stroke="black" stroke-width="3.77953"/>
<path d="M460 200V300" stroke="black" stroke-width="3.77953"/>
<path d="M470 200V300" stroke="black" stroke-width="3.77953"/>
<path d="M480 200V300" stroke="black" stroke-width="3.77953"/>
<path d="M490 200V300" stroke="black" stroke-width="3.77953"/>
<path d="M200 600V700" stroke="black" stroke-width="3.77953"/>
<path d="M210 600V700" stroke="black" stroke-width="3.77953"/>
<path d="M220 600V700" stroke="black" stroke-width="3.77953"/>
<path d="M230 600V700" stroke="black" stroke-width="3.77953"/>
<path d="M240 600V700" stroke="black" stroke-width="3.77953"/>
<path d="M250 600V700" stroke="black" stroke-width="3.77953"/>
<path d="M260 600V700" stroke="black" stroke-width="3.77953"/>
<path d="M270 600V700" stroke="black" stroke-width="3.77953"/>
<path d="M280 600V700" stroke="black" stroke-width="3.77953"/>
<path d="M290 600V700" stroke="black" stroke-width="3.77953"/>
<path d="M200 800V900" stroke="black" stroke-width="3.77953"/>
<path d="M210 800V900" stroke="black" stroke-width="3.77953"/>
<path d="M220 800V900" stroke="black" stroke-width="3.77953"/>
<path d="M230 800V900" stroke="black" stroke-width="3.77953"/>
<path d="M240 800V900" stroke="black" stroke-width="3.77953"/>
<path d="M250 800V900" stroke="black" stroke-width="3.77953"/>
<path d="M260 800V900" stroke="black" stroke-width="3.77953"/>
<path d="M270 800V900" stroke="black" stroke-width="3.77953"/>
<path d="M280 800V900" stroke="black" stroke-width="3.77953"/>
<path d="M290 800V900" stroke="black" stroke-width="3.77953"/>
<path d="M500 300V400" stroke="black" stroke-width="3.77953"/>
<path d="M510 300V400" stroke="black" stroke-width="3.77953"/>
<path d="M520 300V400" stroke="black" stroke-width="3.77953"/>
<path d="M530 300V400" stroke="black" stroke-width="3.77953"/>
<path d="M540 300V400" stroke="black" stroke-width="3.77953"/>
<path d="M550 300V400" stroke="black" stroke-width="3.77953"/>
<path d="M560 300V400" stroke="black" stroke-width="3.77953"/>
<path d="M570 300V400" stroke="black" stroke-width="3.77953"/>
<path d="M580 300V400" stroke="black" stroke-width="3.77953"/>
<path d="M590 300V400" stroke="black" stroke-width="3.77953"/>
<path d="M800 400V500" stroke="black" stroke-width="3.77953"/>
<path d="M810 400V500" stroke="black" stroke-width="3.77953"/>
<path d="M820 400V500" stroke="black" stroke-width="3.77953"/>
<path d="M830 400V500" stroke="black" stroke-width="3.77953"/>
<path d="M840 400V500" stroke="black" stroke-width="3.77953"/>
<path d="M850 400V500" stroke="black" stroke-width="3.77953"/>
<path d="M860 400V500" stroke="black" stroke-width="3.77953"/>
<path d="M870 400V500" stroke="black" stroke-width="3.77953"/>
<path d="M880 400V500" stroke="black" stroke-width="3.77953"/>
<path d="M890 400V500" stroke="black" stroke-width="3.77953"/>
<path d="M600 200V300" stroke="black" stroke-width="3.77953"/>
<path d="M610 200V300" stroke="black" stroke-width="3.77953"/>
<path d="M620 200V300" stroke="black" stroke-width="3.77953"/>
<path d="M630 200V300" stroke="black" stroke-width="3.77953"/>
<path d="M640 200V300" stroke="black" stroke-width="3.77953"/>
<path d="M650 200V300" stroke="black" stroke-width="3.77953"/>
<path d="M660 200V300" stroke="black" stroke-width="3.77953"/>
<path d="M670 200V300" stroke="black" stroke-width="3.77953"/>
<path d="M680 200V300" stroke="black" stroke-width="3.77953"/>
<path d="M690 200V300" stroke="black" stroke-width="3.77953"/>
<path d="M500 500V600" stroke="black" stroke-width="3.77953"/>
<path d="M510 500V600" stroke="black" stroke-width="3.77953"/>
<path d="M520 500V600" stroke="black" stroke-width="3.77953"/>
<path d="M530 500V600" stroke="black" stroke-width="3.77953"/>
<path d="M540 500V600" stroke="black" stroke-width="3.77953"/>
<path d="M550 500V600" stroke="black" stroke-width="3.77953"/>
<path d="M560 500V600" stroke="black" stroke-width="3.77953"/>
<path d="M570 500V600" stroke="black" stroke-width="3.77953"/>
<path d="M580 500V600" stroke="black" stroke-width="3.77953"/>
<path d="M590 500V600" stroke="black" stroke-width="3.77953"/>
<path d="M600 400V500" stroke="black" stroke-width="3.77953"/>
<path d="M610 400V500" stroke="black" stroke-width="3.77953"/>
<path d="M620 400V500" stroke="black" stroke-width="3.77953"/>
<path d="M630 400V500" stroke="black" stroke-width="3.77953"/>
<path d="M640 400V500" stroke="black" stroke-width="3.77953"/>
<path d="M650 400V500" stroke="black" stroke-width="3.77953"/>
<path d="M660 400V500" stroke="black" stroke-width="3.77953"/>
<path d="M670 400V500" stroke="black" stroke-width="3.77953"/>
<path d="M680 400V500" stroke="black" stroke-width="3.77953"/>
<path d="M690 400V500" stroke="black" stroke-width="3.77953"/>
<path d="M500 700V800" stroke="black" stroke-width="3.77953"/>
<path d="M510 700V800" stroke="black" stroke-width="3.77953"/>
<path d="M520 700V800" stroke="black" stroke-width="3.77953"/>
<path d="M530 700V800" stroke="black" stroke-width="3.77953"/>
<path d="M540 700V800" stroke="black" stroke-width="3.77953"/>
<path d="M550 700V800" stroke="black" stroke-width="3.77953"/>
<path d="M560 700V800" stroke="black" stroke-width="3.77953"/>
<path d="M570 700V800" stroke="black" stroke-width="3.77953"/>
<path d="M580 700V800" stroke="black" stroke-width="3.77953"/>
<path d="M590 700V800" stroke="black" stroke-width="3.77953"/>
<path d="M700 100V200" stroke="black" stroke-width="3.77953"/>
<path d="M710 100V200" stroke="black" stroke-width="3.77953"/>
<path d="M720 100V200" stroke="black" stroke-width="3.77953"/>
<path d="M730 100V200" stroke="black" stroke-width="3.77953"/>
<path d="M740 100V200" stroke="black" stroke-width="3.77953"/>
<path d="M750 100V200" stroke="black" stroke-width="3.77953"/>
<path d="M760 100V200" stroke="black" stroke-width="3.77953"/>
<path d="M770 100V200" stroke="black" stroke-width="3.77953"/>
<path d="M780 100V200" stroke="black" stroke-width="3.77953"/>
<path d="M790 100V200" stroke="black" stroke-width="3.77953"/>
<path d="M800 800V900" stroke="black" stroke-width="3.77953"/>
<path d="M810 800V900" stroke="black" stroke-width="3.77953"/>
<path d="M820 800V900" stroke="black" stroke-width="3.77953"/>
<path d="M830 800V900" stroke="black" stroke-width="3.77953"/>
<path d="M840 800V900" stroke="black" stroke-width="3.77953"/>
<path d="M850 800V900" stroke="black" stroke-width="3.77953"/>
<path d="M860 800V900" stroke="black" stroke-width="3.77953"/>
<path d="M870 800V900" stroke="black" stroke-width="3.77953"/>
<path d="M880 800V900" stroke="black" stroke-width="3.77953"/>
<path d="M890 800V900" stroke="black" stroke-width="3.77953"/>
<path d="M300 100V200" stroke="black" stroke-width="3.77953"/>
<path d="M310 100V200" stroke="black" stroke-width="3.77953"/>
<path d="M320 100V200" stroke="black" stroke-width="3.77953"/>
<path d="M330 100V200" stroke="black" stroke-width="3.77953"/>
<path d="M340 100V200" stroke="black" stroke-width="3.77953"/>
<path d="M350 100V200" stroke="black" stroke-width="3.77953"/>
<path d="M360 100V200" stroke="black" stroke-width="3.77953"/>
<path d="M370 100V200" stroke="black" stroke-width="3.77953"/>
<path d="M380 100V200" stroke="black" stroke-width="3.77953"/>
<path d="M390 100V200" stroke="black" stroke-width="3.77953"/>
<path d="M400 400V500" stroke="black" stroke-width="3.77953"/>
<path d="M410 400V500" stroke="black" stroke-width="3.77953"/>
<path d="M420 400V500" stroke="black" stroke-width="3.77953"/>
<path d="M430 400V500" stroke="black" stroke-width="3.77953"/>
<path d="M440 400V500" stroke="black" stroke-width="3.77953"/>
<path d="M450 400V500" stroke="black" stroke-width="3.77953"/>
<path d="M460 400V500" stroke="black" stroke-width="3.77953"/>
<path d="M470 400V500" stroke="black" stroke-width="3.77953"/>
<path d="M480 400V500" stroke="black" stroke-width="3.77953"/>
<path d="M490 400V500" stroke="black" stroke-width="3.77953"/>
<path d="M500 100V200" stroke="black" stroke-width="3.77953"/>
<path d="M510 100V200" stroke="black" stroke-width="3.77953"/>
<path d="M520 100V200" stroke="black" stroke-width="3.77953"/>
<path d="M530 100V200" stroke="black" stroke-width="3.77953"/>
<path d="M540 100V200" stroke="black" stroke-width="3.77953"/>
<path d="M550 100V200" stroke="black" stroke-width="3.77953"/>
<path d="M560 100V200" stroke="black" stroke-width="3.77953"/>
<path d="M570 100V200" stroke="black" stroke-width="3.77953"/>
<path d="M580 100V200" stroke="black" stroke-width="3.77953"/>
<path d="M590 100V200" stroke="black" stroke-width="3.77953"/>
<path d="M300 500V600" stroke="black" stroke-width="3.77953"/>
<path d="M310 500V600" stroke="black" stroke-width="3.77953"/>
<path d="M320 500V600" stroke="black" stroke-width="3.77953"/>
<path d="M330 500V600" stroke="black" stroke-width="3.77953"/>
<path d="M340 500V600" stroke="black" stroke-width="3.77953"/>
<path d="M350 500V600" stroke="black" stroke-width="3.77953"/>
<path d="M360 500V600" stroke="black" stroke-width="3.77953"/>
<path d="M370 500V600" stroke="black" stroke-width="3.77953"/>
<path d="M380 500V600" stroke="black" stroke-width="3.77953"/>
<path d="M390 500V600" stroke="black" stroke-width="3.77953"/>
<path d="M400 600V700" stroke="black" stroke-width="3.77953"/>
<path d="M410 600V700" stroke="black" stroke-width="3.77953"/>
<path d="M420 600V700" stroke="black" stroke-width="3.77953"/>
<path d="M430 600V700" stroke="black" stroke-width="3.77953"/>
<path d="M440 600V700" stroke="black" stroke-width="3.77953"/>
<path d="M450 600V700" stroke="black" stroke-width="3.77953"/>
<path d="M460 600V700" stroke="black" stroke-width="3.77953"/>
<path d="M470 600V700" stroke="black" stroke-width="3.77953"/>
<path d="M480 600V700" stroke="black" stroke-width="3.77953"/>
<path d="M490 600V700" stroke="black" stroke-width="3.77953"/>
<path d="M700 700V800" stroke="black" stroke-width="3.77953"/>
<path d="M710 700V800" stroke="black" stroke-width="3.77953"/>
<path d="M720 700V800" stroke="black" stroke-width="3.77953"/>
<path d="M730 700V800" stroke="black" stroke-width="3.77953"/>
<path d="M740 700V800" stroke="black" stroke-width="3.77953"/>
<path d="M750 700V800" stroke="black" stroke-width="3.77953"/>
<path d="M760 700V800" stroke="black" stroke-width="3.77953"/>
<path d="M770 700V800" stroke="black" stroke-width="3.77953"/>
<path d="M780 700V800" stroke="black" stroke-width="3.77953"/>
<path d="M790 700V800" stroke="black" stroke-width="3.77953"/>
<path d="M102 700V800" stroke="black" stroke-width="3.77953"/>
<path d="M112 700V800" stroke="black" stroke-width="3.77953"/>
<path d="M122 700V800" stroke="black" stroke-width="3.77953"/>
<path d="M132 700V800" stroke="black" stroke-width="3.77953"/>
<path d="M142 700V800" stroke="black" stroke-width="3.77953"/>
<path d="M152 700V800" stroke="black" stroke-width="3.77953"/>
<path d="M162 700V800" stroke="black" stroke-width="3.77953"/>
<path d="M172 700V800" stroke="black" stroke-width="3.77953"/>
<path d="M182 700V800" stroke="black" stroke-width="3.77953"/>
<path d="M192 700V800" stroke="black" stroke-width="3.77953"/>
<path d="M700 300V400" stroke="black" stroke-width="3.77953"/>
<path d="M710 300V400" stroke="black" stroke-width="3.77953"/>
<path d="M720 300V400" stroke="black" stroke-width="3.77953"/>
<path d="M730 300V400" stroke="black" stroke-width="3.77953"/>
<path d="M740 300V400" stroke="black" stroke-width="3.77953"/>
<path d="M750 300V400" stroke="black" stroke-width="3.77953"/>
<path d="M760 300V400" stroke="black" stroke-width="3.77953"/>
<path d="M770 300V400" stroke="black" stroke-width="3.77953"/>
<path d="M780 300V400" stroke="black" stroke-width="3.77953"/>
<path d="M790 300V400" stroke="black" stroke-width="3.77953"/>
<path d="M300 700V800" stroke="black" stroke-width="3.77953"/>
<path d="M310 700V800" stroke="black" stroke-width="3.77953"/>
<path d="M320 700V800" stroke="black" stroke-width="3.77953"/>
<path d="M330 700V800" stroke="black" stroke-width="3.77953"/>
<path d="M340 700V800" stroke="black" stroke-width="3.77953"/>
<path d="M350 700V800" stroke="black" stroke-width="3.77953"/>
<path d="M360 700V800" stroke="black" stroke-width="3.77953"/>
<path d="M370 700V800" stroke="black" stroke-width="3.77953"/>
<path d="M380 700V800" stroke="black" stroke-width="3.77953"/>
<path d="M390 700V800" stroke="black" stroke-width="3.77953"/>
</g>
<defs>
<clipPath id="clip0_52_5500">
<rect width="1000" height="1000" fill="white"/>
</clipPath>
</defs>
</svg>
